<svg width="29" height="25" viewBox="0 0 29 25" fill="none" xmlns="http://www.w3.org/2000/svg">
<path d="M17.1583 2.99475C15.6762 2.99475 14.2547 3.50233 13.2066 4.40583C12.1586 5.30932 11.5698 6.53472 11.5698 7.81246V10.4948H8.57917C8.42902 10.4948 8.30729 10.5997 8.30729 10.7291V14.2708C8.30729 14.4002 8.42902 14.5052 8.57917 14.5052H11.5698V21.7708C11.5698 21.9002 11.6915 22.0052 11.8417 22.0052H15.95C16.1002 22.0052 16.2219 21.9002 16.2219 21.7708V14.5052H19.239C19.3637 14.5052 19.4725 14.432 19.5027 14.3276L20.5298 10.786C20.5727 10.638 20.4429 10.4948 20.2661 10.4948H16.2219V7.81246C16.2219 7.59835 16.3205 7.39301 16.4962 7.24162C16.6718 7.09022 16.91 7.00517 17.1583 7.00517H20.3C20.4502 7.00517 20.5719 6.90023 20.5719 6.77079V3.22913C20.5719 3.09968 20.4502 2.99475 20.3 2.99475H17.1583Z" fill="black"/>
</svg>
