<svg width="51" height="55" viewBox="0 0 51 55" fill="none" xmlns="http://www.w3.org/2000/svg">
<path d="M49.7523 46.8118C49.7523 46.8091 49.7523 46.8078 49.7523 46.8064L49.581 45.8316C49.4585 45.089 49.3715 44.5815 49.0948 43.6482C48.7113 42.378 48.2106 41.1722 47.6242 40.102C46.8244 38.5659 45.815 37.2473 44.6225 36.1851L43.9478 35.6171C42.7698 34.6463 41.4666 33.8608 40.0724 33.2794C39.6652 33.1102 39.2581 32.9289 38.8483 32.7476L38.1723 32.4536C37.0048 31.9098 35.4486 31.6842 33.8027 31.4452C33.5432 31.4076 33.2678 31.3686 32.9937 31.327L32.9607 30.5589C32.9423 30.1266 32.9251 29.7425 32.9054 29.3961C33.9569 28.1742 34.7686 26.7576 35.3721 25.0939C35.3932 25.0334 35.4499 24.9274 35.5145 24.8455C36.7768 23.2664 37.5898 21.6899 38.0036 20.0195C38.312 18.7708 38.955 16.1725 37.5016 13.8522C37.4871 13.7663 37.4897 13.6656 37.491 13.5474L37.4937 13.3111C37.5134 12.8894 37.5121 12.4692 37.4673 12.0798C37.3171 10.6014 37.0918 8.39117 35.5856 6.40388C34.9755 4.23262 33.5853 2.55685 31.5455 1.54171C28.9733 0.271454 26.1482 -0.219999 23.1346 0.0901804C17.9783 0.651458 13.9962 4.19234 12.9895 9.11224C12.7273 10.4013 12.7049 11.6138 12.6838 12.7001C12.6785 13.1459 12.6667 13.5863 12.6429 13.8012C12.6311 13.8294 12.4809 14.1678 12.4716 14.196C12.2239 14.7317 11.8497 15.5428 11.7627 16.5753C11.511 19.5737 12.4532 22.317 14.6287 24.9287C15.2138 26.6166 16.0519 28.107 17.1232 29.3733C17.0942 29.6539 17.0652 29.9587 17.0349 30.2904C17.0059 30.5938 16.9729 30.9524 16.9374 31.3203C16.7068 31.3579 16.4762 31.3928 16.2561 31.4264C16.2548 31.4277 15.982 31.4693 15.9807 31.4693C14.4798 31.7057 13.062 31.9272 11.8128 32.5033L10.0273 33.2807C8.63709 33.8635 7.35232 34.6356 6.26653 35.5312C6.11499 35.648 5.96741 35.7648 5.69596 35.9931C5.68278 36.0052 5.51016 36.1677 5.49698 36.1798C4.29786 37.2446 3.28982 38.5578 2.53081 40.0254C2.13023 40.7438 1.76654 41.5334 1.4661 42.3283L1.33038 42.664C1.07474 43.3072 0.812518 43.9692 0.804611 44.7413L0.446194 46.7876C0.260396 47.8081 0.093047 48.7588 0.0508802 49.0233C-0.258782 51.1959 0.863908 53.1537 2.90373 54.009C3.54677 54.2803 5.25321 55 25.0558 55C44.857 55 46.5608 54.2803 47.1973 54.0104C48.5295 53.4518 49.4756 52.4353 49.8841 51.1771C50.232 50.7152 50.3769 50.1177 50.2662 49.5309L49.7523 46.8118ZM15.7949 16.9272C15.8199 16.6304 15.9728 16.3014 16.1533 15.9093C16.2521 15.6999 16.3497 15.4837 16.3931 15.3534C16.517 15.0432 16.6237 14.6753 16.6475 14.5478C16.6659 14.4565 16.6764 14.3651 16.6817 14.2725C16.712 13.7663 16.7265 13.2587 16.7318 12.7632C16.7489 11.8287 16.7674 10.8632 16.9532 9.95147C17.5936 6.82013 20.1881 4.55891 23.5509 4.19234C25.8029 3.96272 27.8915 4.3199 29.7745 5.25044C30.8445 5.78352 31.4704 6.57172 31.7234 7.6352C31.8209 8.15753 32.1121 8.59393 32.323 8.84906C33.1768 9.90582 33.3112 11.2271 33.4443 12.535C33.4667 12.727 33.4601 12.919 33.4483 13.1741L33.443 13.4856C33.4325 14.3625 33.5313 15.1171 34.0452 15.9577C34.6079 16.8721 34.289 18.1585 34.0768 19.0165C33.812 20.084 33.2559 21.1394 32.3678 22.2499C32.0278 22.6809 31.7537 23.1697 31.5745 23.6625C31.0619 25.0791 30.353 26.2245 29.4069 27.1644C28.9707 27.6008 28.7493 28.2131 28.8073 28.8335C28.8534 29.333 28.8837 29.9439 28.9154 30.7362L29.0247 33.1827C29.0438 33.5216 29.1644 33.8267 29.3265 34.105C25.7855 36.2167 22.3363 35.1854 20.4141 34.2515C20.6141 33.9716 20.7607 33.6498 20.8022 33.2901C20.8892 32.5516 20.9933 31.4438 21.0644 30.6811C21.129 29.9869 21.1817 29.4243 21.2476 28.9624C21.3411 28.3125 21.1237 27.6545 20.6625 27.194C19.6927 26.2231 18.9469 24.9972 18.4659 23.6168C18.2854 23.0394 17.9678 22.5815 17.7385 22.3063C16.2561 20.5137 15.6381 18.8043 15.7949 16.9272ZM16.29 33.5167C16.2897 33.5171 16.2894 33.5172 16.289 33.5176L16.2877 33.509L16.29 33.5167ZM4.05013 49.6558C4.08571 49.4409 4.24779 48.5225 4.42832 47.5275L4.8289 45.2408C4.85789 45.0649 4.86316 45.038 4.84735 44.8608C4.88293 44.6687 4.98307 44.4646 5.10035 44.1665L5.22553 43.8577C5.46009 43.236 5.73417 42.6318 6.08205 42.0047C6.6368 40.9332 7.33387 40.0187 8.27604 39.1728L8.75305 38.7861C9.59243 38.0959 10.5385 37.5266 11.5756 37.0928L13.6404 36.1878C14.0898 35.981 14.9025 35.8226 15.7811 35.6776C15.9095 36.0421 16.1042 36.3852 16.43 36.6363C17.9421 37.7991 20.6576 39.0764 23.8039 39.3479V50.8728C11.0465 50.8503 5.36949 50.4922 4.4494 50.1969C4.00138 50.0089 4.03169 49.7901 4.05013 49.6558ZM46.0588 49.7632C46.0548 49.8572 46.0496 50.0318 45.6951 50.1821C44.7417 50.49 39.1181 50.8468 26.5026 50.8725V39.3358C28.5912 39.0739 30.7746 38.2856 32.8883 36.6215C33.2348 36.3491 33.4351 35.9743 33.5527 35.5774C34.6968 35.744 35.9134 35.9371 36.5436 36.2294L37.2354 36.5316C37.6729 36.7249 38.109 36.9183 38.5426 37.0982C39.5691 37.5266 40.5323 38.1066 41.4534 38.8653L41.9581 39.2896C42.7764 40.0201 43.48 40.9439 44.069 42.0732C44.5368 42.9285 44.9255 43.8658 45.222 44.8487C45.4315 45.559 45.4948 45.9511 45.5923 46.5312C45.6397 46.8239 45.6938 47.1515 45.7781 47.5906L46.1128 49.3604C46.0812 49.492 46.0641 49.6262 46.0588 49.7632Z" fill="#006B8C"/>
</svg>
