<svg width="39" height="37" viewBox="0 0 39 37" fill="none" xmlns="http://www.w3.org/2000/svg">
<path fill-rule="evenodd" clip-rule="evenodd" d="M17.3914 8.09375C17.1213 8.09375 16.8719 8.23124 16.7382 8.45391L11.301 17.5085C10.5803 18.7087 10.2778 20.0944 10.4368 21.4675L11.0107 26.4219C11.1128 27.3034 11.8422 28.0016 12.7704 28.1064L16.2106 28.4946C18.4817 28.7509 20.7843 28.5288 22.9545 27.844C24.0262 27.5058 24.8847 26.734 25.2983 25.7369L28.0674 19.0606C28.1351 18.8974 28.1819 18.727 28.2068 18.5532C28.4168 17.0854 27.0624 15.8472 25.5241 16.1007L19.9734 17.0153C18.22 17.3042 16.7056 15.8362 17.0478 14.1794L18.1291 8.9441C18.2201 8.50354 17.8646 8.09375 17.3914 8.09375ZM14.6203 7.30921C15.1876 6.36456 16.2454 5.78126 17.3914 5.78125C19.3989 5.78123 20.9072 7.51975 20.5211 9.38877L19.4399 14.6241C19.4352 14.6465 19.4377 14.6602 19.441 14.67C19.445 14.6821 19.4532 14.6963 19.4668 14.7095C19.4804 14.7227 19.4952 14.7308 19.5078 14.7348C19.5181 14.7382 19.5325 14.7408 19.5563 14.7369L25.1069 13.8223C28.2695 13.3011 31.0539 15.8466 30.6221 18.8643C30.571 19.2216 30.4748 19.5718 30.3356 19.9074L27.5665 26.5837C26.8884 28.2185 25.481 29.4838 23.7238 30.0383C21.2134 30.8304 18.5498 31.0874 15.9227 30.7909L12.4825 30.4027C10.4281 30.1708 8.81376 28.6255 8.58778 26.6745L8.01393 21.7201C7.79875 19.8624 8.20796 17.9876 9.18308 16.3638L14.6203 7.30921Z" fill="black"/>
</svg>
