<svg width="21" height="19" viewBox="0 0 21 19" fill="none" xmlns="http://www.w3.org/2000/svg">
<path d="M10.5 6.14678C8.44967 6.14678 6.78756 7.64807 6.78756 9.5C6.78756 11.3519 8.44967 12.8532 10.5 12.8532C12.5503 12.8532 14.2124 11.3519 14.2124 9.5C14.2124 7.64807 12.5503 6.14678 10.5 6.14678Z" fill="black"/>
<path fill-rule="evenodd" clip-rule="evenodd" d="M4.5253 0.298213C8.46404 -0.0994045 12.536 -0.0994045 16.4747 0.298213C18.6432 0.517126 20.3923 2.06041 20.6468 4.02597C21.1177 7.66293 21.1177 11.3371 20.6468 14.974C20.3923 16.9396 18.6432 18.4829 16.4747 18.7018C12.536 19.0994 8.46404 19.0994 4.5253 18.7018C2.35679 18.4829 0.607724 16.9396 0.353207 14.974C-0.117736 11.3371 -0.117736 7.66293 0.353207 4.02597C0.607724 2.06041 2.35679 0.517126 4.5253 0.298213ZM16.2114 3.30944C15.5806 3.30944 15.0691 3.77137 15.0691 4.3412C15.0691 4.91102 15.5806 5.37296 16.2114 5.37296C16.8423 5.37296 17.3537 4.91102 17.3537 4.3412C17.3537 3.77137 16.8423 3.30944 16.2114 3.30944ZM5.07413 9.5C5.07413 6.79333 7.50337 4.59914 10.5 4.59914C13.4966 4.59914 15.9258 6.79333 15.9258 9.5C15.9258 12.2067 13.4966 14.4009 10.5 14.4009C7.50337 14.4009 5.07413 12.2067 5.07413 9.5Z" fill="black"/>
</svg>
